<!--?xml version="1.0" standalone="no"?-->
              <svg id="sw-js-blob-svg" viewBox="0 0 100 100" xmlns="http://www.w3.org/2000/svg" version="1.1" style="
    filter: blur(45px);
">
                    <defs> 
                        <linearGradient id="sw-gradient" x1="0" x2="1" y1="1" y2="0">
                            <stop id="stop1" stop-color="rgba(186, 178, 255, 1)" offset="0%"></stop>
                            <stop id="stop2" stop-color="rgba(186, 178, 255, 1)" offset="100%"></stop>
                        </linearGradient>
                    </defs>
                <path fill="url(#sw-gradient)" d="M27,-33.8C33.2,-26.9,35.2,-16.8,34.5,-8C33.8,0.8,30.4,8.2,25.3,12.4C20.2,16.6,13.5,17.8,8,18.2C2.4,18.7,-2.2,18.5,-10.3,19.4C-18.4,20.3,-30.2,22.2,-35.8,18C-41.5,13.7,-41.2,3.3,-38.4,-5.8C-35.7,-14.9,-30.6,-22.7,-23.8,-29.4C-17,-36.1,-8.5,-41.9,0.9,-43C10.4,-44.1,20.8,-40.6,27,-33.8Z" width="100%" height="100%" transform="translate(50 50)" stroke-width="0" style="transition: 0.3s;"></path>
              </svg>